<?xml version="1.0" encoding="UTF-8" standalone="no"?>
<!DOCTYPE svg PUBLIC "-//W3C//DTD SVG 1.1//EN"
 "http://www.w3.org/Graphics/SVG/1.1/DTD/svg11.dtd">
<!-- Generated by graphviz version 2.40.1 (20161225.0304)
 -->
<!-- Title: G Pages: 1 -->
<svg width="342pt" height="508pt"
 viewBox="0.00 0.00 342.00 508.00" xmlns="http://www.w3.org/2000/svg" xmlns:xlink="http://www.w3.org/1999/xlink">
<g id="graph0" class="graph" transform="scale(1 1) rotate(0) translate(4 504)">
<title>G</title>
<polygon fill="#ffffff" stroke="transparent" points="-4,4 -4,-504 338,-504 338,4 -4,4"/>
<g id="clust1" class="cluster">
<title>cluster_Global</title>
<path fill="none" stroke="#c0c0c0" d="M20,-8C20,-8 314,-8 314,-8 320,-8 326,-14 326,-20 326,-20 326,-480 326,-480 326,-486 320,-492 314,-492 314,-492 20,-492 20,-492 14,-492 8,-486 8,-480 8,-480 8,-20 8,-20 8,-14 14,-8 20,-8"/>
<text text-anchor="middle" x="167" y="-479.2" font-family="Times,serif" font-size="11.00" fill="#c0c0c0">Global</text>
</g>
<g id="clust2" class="cluster">
<title>cluster_\InvisibleCollector</title>
<path fill="none" stroke="#c0c0c0" d="M28,-16C28,-16 306,-16 306,-16 312,-16 318,-22 318,-28 318,-28 318,-452 318,-452 318,-458 312,-464 306,-464 306,-464 28,-464 28,-464 22,-464 16,-458 16,-452 16,-452 16,-28 16,-28 16,-22 22,-16 28,-16"/>
<text text-anchor="middle" x="167" y="-451.2" font-family="Times,serif" font-size="11.00" fill="#c0c0c0">InvisibleCollector</text>
</g>
<g id="clust3" class="cluster">
<title>cluster_\InvisibleCollector\Shlink</title>
<path fill="none" stroke="#c0c0c0" d="M36,-24C36,-24 298,-24 298,-24 304,-24 310,-30 310,-36 310,-36 310,-424 310,-424 310,-430 304,-436 298,-436 298,-436 36,-436 36,-436 30,-436 24,-430 24,-424 24,-424 24,-36 24,-36 24,-30 30,-24 36,-24"/>
<text text-anchor="middle" x="167" y="-423.2" font-family="Times,serif" font-size="11.00" fill="#c0c0c0">Shlink</text>
</g>
<g id="clust4" class="cluster">
<title>cluster_\InvisibleCollector\Shlink\Client</title>
<path fill="none" stroke="#c0c0c0" d="M44,-32C44,-32 290,-32 290,-32 296,-32 302,-38 302,-44 302,-44 302,-396 302,-396 302,-402 296,-408 290,-408 290,-408 44,-408 44,-408 38,-408 32,-402 32,-396 32,-396 32,-44 32,-44 32,-38 38,-32 44,-32"/>
<text text-anchor="middle" x="167" y="-395.2" font-family="Times,serif" font-size="11.00" fill="#c0c0c0">Client</text>
</g>
<g id="clust5" class="cluster">
<title>cluster_\InvisibleCollector\Shlink\Client\Models</title>
<path fill="none" stroke="#c0c0c0" d="M52,-84C52,-84 282,-84 282,-84 288,-84 294,-90 294,-96 294,-96 294,-368 294,-368 294,-374 288,-380 282,-380 282,-380 52,-380 52,-380 46,-380 40,-374 40,-368 40,-368 40,-96 40,-96 40,-90 46,-84 52,-84"/>
<text text-anchor="middle" x="167" y="-367.2" font-family="Times,serif" font-size="11.00" fill="#c0c0c0">Models</text>
</g>
<g id="clust6" class="cluster">
<title>cluster_\InvisibleCollector\Shlink\Client\Models\Responses</title>
<path fill="none" stroke="#c0c0c0" d="M181,-226C181,-226 271,-226 271,-226 277,-226 283,-232 283,-238 283,-238 283,-340 283,-340 283,-346 277,-352 271,-352 271,-352 181,-352 181,-352 175,-352 169,-346 169,-340 169,-340 169,-238 169,-238 169,-232 175,-226 181,-226"/>
<text text-anchor="middle" x="226" y="-339.2" font-family="Times,serif" font-size="11.00" fill="#c0c0c0">Responses</text>
</g>
<g id="clust7" class="cluster">
<title>cluster_\InvisibleCollector\Shlink\Client\Models\Requests</title>
<path fill="none" stroke="#c0c0c0" d="M178,-92C178,-92 274,-92 274,-92 280,-92 286,-98 286,-104 286,-104 286,-206 286,-206 286,-212 280,-218 274,-218 274,-218 178,-218 178,-218 172,-218 166,-212 166,-206 166,-206 166,-104 166,-104 166,-98 172,-92 178,-92"/>
<text text-anchor="middle" x="226" y="-205.2" font-family="Times,serif" font-size="11.00" fill="#c0c0c0">Requests</text>
</g>
<!-- \\InvisibleCollector\\Shlink\\Client\\Models\\Responses\\ShortenedUrl -->
<g id="node1" class="node">
<title>\\InvisibleCollector\\Shlink\\Client\\Models\\Responses\\ShortenedUrl</title>
<polygon fill="none" stroke="#000000" points="275,-324 177,-324 177,-288 275,-288 275,-324"/>
<text text-anchor="middle" x="226" y="-303.2" font-family="Courier,monospace" font-size="11.00" fill="#000000">ShortenedUrl</text>
</g>
<!-- \\InvisibleCollector\\Shlink\\Client\\Models\\Model -->
<g id="node5" class="node">
<title>\\InvisibleCollector\\Shlink\\Client\\Models\\Model</title>
<polygon fill="none" stroke="#000000" points="102,-230 48,-230 48,-194 102,-194 102,-230"/>
<text text-anchor="middle" x="75" y="-209.2" font-family="Courier,monospace" font-size="11.00" fill="#000000">Model</text>
</g>
<!-- \\InvisibleCollector\\Shlink\\Client\\Models\\Responses\\ShortenedUrl&#45;&gt;\\InvisibleCollector\\Shlink\\Client\\Models\\Model -->
<g id="edge1" class="edge">
<title>\\InvisibleCollector\\Shlink\\Client\\Models\\Responses\\ShortenedUrl&#45;&gt;\\InvisibleCollector\\Shlink\\Client\\Models\\Model</title>
<path fill="none" stroke="#000000" d="M182.8309,-287.9093C177.0747,-285.1119 171.3259,-282.1116 166,-279 144.6005,-266.4975 122.1614,-250.0189 104.9198,-236.5329"/>
<polygon fill="none" stroke="#000000" points="106.9132,-233.647 96.9005,-230.1834 102.5679,-239.135 106.9132,-233.647"/>
</g>
<!-- \\InvisibleCollector\\Shlink\\Client\\Models\\Responses\\Visits -->
<g id="node2" class="node">
<title>\\InvisibleCollector\\Shlink\\Client\\Models\\Responses\\Visits</title>
<polygon fill="none" stroke="#000000" points="254.5,-270 197.5,-270 197.5,-234 254.5,-234 254.5,-270"/>
<text text-anchor="middle" x="226" y="-249.2" font-family="Courier,monospace" font-size="11.00" fill="#000000">Visits</text>
</g>
<!-- \\InvisibleCollector\\Shlink\\Client\\Models\\Responses\\Visits&#45;&gt;\\InvisibleCollector\\Shlink\\Client\\Models\\Model -->
<g id="edge2" class="edge">
<title>\\InvisibleCollector\\Shlink\\Client\\Models\\Responses\\Visits&#45;&gt;\\InvisibleCollector\\Shlink\\Client\\Models\\Model</title>
<path fill="none" stroke="#000000" d="M197.2426,-244.3822C173.0694,-237.9787 138.3566,-228.7832 112.094,-221.8262"/>
<polygon fill="none" stroke="#000000" points="112.6894,-218.3633 102.1265,-219.1858 110.8969,-225.1299 112.6894,-218.3633"/>
</g>
<!-- \\InvisibleCollector\\Shlink\\Client\\Models\\Requests\\VisitsOptions -->
<g id="node3" class="node">
<title>\\InvisibleCollector\\Shlink\\Client\\Models\\Requests\\VisitsOptions</title>
<polygon fill="none" stroke="#000000" points="278,-190 174,-190 174,-154 278,-154 278,-190"/>
<text text-anchor="middle" x="226" y="-169.2" font-family="Courier,monospace" font-size="11.00" fill="#000000">VisitsOptions</text>
</g>
<!-- \\InvisibleCollector\\Shlink\\Client\\Models\\Requests\\VisitsOptions&#45;&gt;\\InvisibleCollector\\Shlink\\Client\\Models\\Model -->
<g id="edge3" class="edge">
<title>\\InvisibleCollector\\Shlink\\Client\\Models\\Requests\\VisitsOptions&#45;&gt;\\InvisibleCollector\\Shlink\\Client\\Models\\Model</title>
<path fill="none" stroke="#000000" d="M173.6113,-185.8778C153.3437,-191.2467 130.6169,-197.267 112.0938,-202.1738"/>
<polygon fill="none" stroke="#000000" points="111.0483,-198.83 102.278,-204.774 112.8409,-205.5966 111.0483,-198.83"/>
</g>
<!-- \\InvisibleCollector\\Shlink\\Client\\Models\\Requests\\ShortenUrl -->
<g id="node4" class="node">
<title>\\InvisibleCollector\\Shlink\\Client\\Models\\Requests\\ShortenUrl</title>
<polygon fill="none" stroke="#000000" points="268,-136 184,-136 184,-100 268,-100 268,-136"/>
<text text-anchor="middle" x="226" y="-115.2" font-family="Courier,monospace" font-size="11.00" fill="#000000">ShortenUrl</text>
</g>
<!-- \\InvisibleCollector\\Shlink\\Client\\Models\\Requests\\ShortenUrl&#45;&gt;\\InvisibleCollector\\Shlink\\Client\\Models\\Model -->
<g id="edge4" class="edge">
<title>\\InvisibleCollector\\Shlink\\Client\\Models\\Requests\\ShortenUrl&#45;&gt;\\InvisibleCollector\\Shlink\\Client\\Models\\Model</title>
<path fill="none" stroke="#000000" d="M183.7902,-135.6263C177.7147,-138.5551 171.6218,-141.7155 166,-145 144.6005,-157.5025 122.1614,-173.9811 104.9198,-187.4671"/>
<polygon fill="none" stroke="#000000" points="102.5679,-184.865 96.9005,-193.8166 106.9132,-190.353 102.5679,-184.865"/>
</g>
<!-- \\InvisibleCollector\\Shlink\\Client\\ShlinkClient -->
<g id="node6" class="node">
<title>\\InvisibleCollector\\Shlink\\Client\\ShlinkClient</title>
<polygon fill="none" stroke="#000000" points="275,-76 177,-76 177,-40 275,-40 275,-76"/>
<text text-anchor="middle" x="226" y="-55.2" font-family="Courier,monospace" font-size="11.00" fill="#000000">ShlinkClient</text>
</g>
</g>
</svg>
