<?xml version="1.0" encoding="UTF-8" standalone="no"?>
<!DOCTYPE svg PUBLIC "-//W3C//DTD SVG 1.1//EN"
 "http://www.w3.org/Graphics/SVG/1.1/DTD/svg11.dtd">
<!-- Generated by graphviz version 2.40.1 (20161225.0304)
 -->
<!-- Title: G Pages: 1 -->
<svg width="329pt" height="320pt"
 viewBox="0.00 0.00 329.00 320.00" xmlns="http://www.w3.org/2000/svg" xmlns:xlink="http://www.w3.org/1999/xlink">
<g id="graph0" class="graph" transform="scale(1 1) rotate(0) translate(4 316)">
<title>G</title>
<polygon fill="#ffffff" stroke="transparent" points="-4,4 -4,-316 325,-316 325,4 -4,4"/>
<g id="clust1" class="cluster">
<title>cluster_Global</title>
<path fill="none" stroke="#c0c0c0" d="M20,-8C20,-8 301,-8 301,-8 307,-8 313,-14 313,-20 313,-20 313,-292 313,-292 313,-298 307,-304 301,-304 301,-304 20,-304 20,-304 14,-304 8,-298 8,-292 8,-292 8,-20 8,-20 8,-14 14,-8 20,-8"/>
<text text-anchor="middle" x="160.5" y="-291.2" font-family="Times,serif" font-size="11.00" fill="#c0c0c0">Global</text>
</g>
<g id="clust2" class="cluster">
<title>cluster_\InvisibleCollector</title>
<path fill="none" stroke="#c0c0c0" d="M28,-16C28,-16 293,-16 293,-16 299,-16 305,-22 305,-28 305,-28 305,-264 305,-264 305,-270 299,-276 293,-276 293,-276 28,-276 28,-276 22,-276 16,-270 16,-264 16,-264 16,-28 16,-28 16,-22 22,-16 28,-16"/>
<text text-anchor="middle" x="160.5" y="-263.2" font-family="Times,serif" font-size="11.00" fill="#c0c0c0">InvisibleCollector</text>
</g>
<g id="clust3" class="cluster">
<title>cluster_\InvisibleCollector\Shlink</title>
<path fill="none" stroke="#c0c0c0" d="M36,-24C36,-24 285,-24 285,-24 291,-24 297,-30 297,-36 297,-36 297,-236 297,-236 297,-242 291,-248 285,-248 285,-248 36,-248 36,-248 30,-248 24,-242 24,-236 24,-236 24,-36 24,-36 24,-30 30,-24 36,-24"/>
<text text-anchor="middle" x="160.5" y="-235.2" font-family="Times,serif" font-size="11.00" fill="#c0c0c0">Shlink</text>
</g>
<g id="clust4" class="cluster">
<title>cluster_\InvisibleCollector\Shlink\Client</title>
<path fill="none" stroke="#c0c0c0" d="M44,-32C44,-32 277,-32 277,-32 283,-32 289,-38 289,-44 289,-44 289,-208 289,-208 289,-214 283,-220 277,-220 277,-220 44,-220 44,-220 38,-220 32,-214 32,-208 32,-208 32,-44 32,-44 32,-38 38,-32 44,-32"/>
<text text-anchor="middle" x="160.5" y="-207.2" font-family="Times,serif" font-size="11.00" fill="#c0c0c0">Client</text>
</g>
<g id="clust5" class="cluster">
<title>cluster_\InvisibleCollector\Shlink\Client\Models</title>
<path fill="none" stroke="#c0c0c0" d="M52,-84C52,-84 269,-84 269,-84 275,-84 281,-90 281,-96 281,-96 281,-180 281,-180 281,-186 275,-192 269,-192 269,-192 52,-192 52,-192 46,-192 40,-186 40,-180 40,-180 40,-96 40,-96 40,-90 46,-84 52,-84"/>
<text text-anchor="middle" x="160.5" y="-179.2" font-family="Times,serif" font-size="11.00" fill="#c0c0c0">Models</text>
</g>
<g id="clust6" class="cluster">
<title>cluster_\InvisibleCollector\Shlink\Client\Models\Requests</title>
<path fill="none" stroke="#c0c0c0" d="M185,-92C185,-92 261,-92 261,-92 267,-92 273,-98 273,-104 273,-104 273,-152 273,-152 273,-158 267,-164 261,-164 261,-164 185,-164 185,-164 179,-164 173,-158 173,-152 173,-152 173,-104 173,-104 173,-98 179,-92 185,-92"/>
<text text-anchor="middle" x="223" y="-151.2" font-family="Times,serif" font-size="11.00" fill="#c0c0c0">Requests</text>
</g>
<!-- \\InvisibleCollector\\Shlink\\Client\\Models\\Requests\\ShortenUrl -->
<g id="node1" class="node">
<title>\\InvisibleCollector\\Shlink\\Client\\Models\\Requests\\ShortenUrl</title>
<polygon fill="none" stroke="#000000" points="265,-136 181,-136 181,-100 265,-100 265,-136"/>
<text text-anchor="middle" x="223" y="-115.2" font-family="Courier,monospace" font-size="11.00" fill="#000000">ShortenUrl</text>
</g>
<!-- \\InvisibleCollector\\Shlink\\Client\\Models\\Model -->
<g id="node2" class="node">
<title>\\InvisibleCollector\\Shlink\\Client\\Models\\Model</title>
<polygon fill="none" stroke="#000000" points="102,-136 48,-136 48,-100 102,-100 102,-136"/>
<text text-anchor="middle" x="75" y="-115.2" font-family="Courier,monospace" font-size="11.00" fill="#000000">Model</text>
</g>
<!-- \\InvisibleCollector\\Shlink\\Client\\Models\\Requests\\ShortenUrl&#45;&gt;\\InvisibleCollector\\Shlink\\Client\\Models\\Model -->
<g id="edge1" class="edge">
<title>\\InvisibleCollector\\Shlink\\Client\\Models\\Requests\\ShortenUrl&#45;&gt;\\InvisibleCollector\\Shlink\\Client\\Models\\Model</title>
<path fill="none" stroke="#000000" d="M180.985,-118C159.3451,-118 133.1863,-118 112.2715,-118"/>
<polygon fill="none" stroke="#000000" points="112.1671,-114.5001 102.167,-118 112.167,-121.5001 112.1671,-114.5001"/>
</g>
<!-- \\InvisibleCollector\\Shlink\\Client\\ShlinkClient -->
<g id="node3" class="node">
<title>\\InvisibleCollector\\Shlink\\Client\\ShlinkClient</title>
<polygon fill="none" stroke="#000000" points="272,-76 174,-76 174,-40 272,-40 272,-76"/>
<text text-anchor="middle" x="223" y="-55.2" font-family="Courier,monospace" font-size="11.00" fill="#000000">ShlinkClient</text>
</g>
</g>
</svg>
