<?xml version="1.0" encoding="UTF-8" standalone="no"?>
<!DOCTYPE svg PUBLIC "-//W3C//DTD SVG 1.1//EN"
 "http://www.w3.org/Graphics/SVG/1.1/DTD/svg11.dtd">
<!-- Generated by graphviz version 2.40.1 (20161225.0304)
 -->
<!-- Title: G Pages: 1 -->
<svg width="601pt" height="330pt"
 viewBox="0.00 0.00 601.37 330.00" xmlns="http://www.w3.org/2000/svg" xmlns:xlink="http://www.w3.org/1999/xlink">
<g id="graph0" class="graph" transform="scale(1 1) rotate(0) translate(4 326)">
<title>G</title>
<polygon fill="#ffffff" stroke="transparent" points="-4,4 -4,-326 597.3679,-326 597.3679,4 -4,4"/>
<g id="clust1" class="cluster">
<title>cluster_Global</title>
<path fill="none" stroke="#c0c0c0" d="M397.3679,-8C397.3679,-8 573.3679,-8 573.3679,-8 579.3679,-8 585.3679,-14 585.3679,-20 585.3679,-20 585.3679,-302 585.3679,-302 585.3679,-308 579.3679,-314 573.3679,-314 573.3679,-314 397.3679,-314 397.3679,-314 391.3679,-314 385.3679,-308 385.3679,-302 385.3679,-302 385.3679,-20 385.3679,-20 385.3679,-14 391.3679,-8 397.3679,-8"/>
<text text-anchor="middle" x="485.3679" y="-301.2" font-family="Times,serif" font-size="11.00" fill="#c0c0c0">Global</text>
</g>
<g id="clust2" class="cluster">
<title>cluster_\InvisibleCollector</title>
<path fill="none" stroke="#c0c0c0" d="M405.3679,-16C405.3679,-16 565.3679,-16 565.3679,-16 571.3679,-16 577.3679,-22 577.3679,-28 577.3679,-28 577.3679,-274 577.3679,-274 577.3679,-280 571.3679,-286 565.3679,-286 565.3679,-286 405.3679,-286 405.3679,-286 399.3679,-286 393.3679,-280 393.3679,-274 393.3679,-274 393.3679,-28 393.3679,-28 393.3679,-22 399.3679,-16 405.3679,-16"/>
<text text-anchor="middle" x="485.3679" y="-273.2" font-family="Times,serif" font-size="11.00" fill="#c0c0c0">InvisibleCollector</text>
</g>
<g id="clust3" class="cluster">
<title>cluster_\InvisibleCollector\Shlink</title>
<path fill="none" stroke="#c0c0c0" d="M413.3679,-24C413.3679,-24 557.3679,-24 557.3679,-24 563.3679,-24 569.3679,-30 569.3679,-36 569.3679,-36 569.3679,-246 569.3679,-246 569.3679,-252 563.3679,-258 557.3679,-258 557.3679,-258 413.3679,-258 413.3679,-258 407.3679,-258 401.3679,-252 401.3679,-246 401.3679,-246 401.3679,-36 401.3679,-36 401.3679,-30 407.3679,-24 413.3679,-24"/>
<text text-anchor="middle" x="485.3679" y="-245.2" font-family="Times,serif" font-size="11.00" fill="#c0c0c0">Shlink</text>
</g>
<g id="clust4" class="cluster">
<title>cluster_\InvisibleCollector\Shlink\Client</title>
<path fill="none" stroke="#c0c0c0" d="M421.3679,-32C421.3679,-32 549.3679,-32 549.3679,-32 555.3679,-32 561.3679,-38 561.3679,-44 561.3679,-44 561.3679,-218 561.3679,-218 561.3679,-224 555.3679,-230 549.3679,-230 549.3679,-230 421.3679,-230 421.3679,-230 415.3679,-230 409.3679,-224 409.3679,-218 409.3679,-218 409.3679,-44 409.3679,-44 409.3679,-38 415.3679,-32 421.3679,-32"/>
<text text-anchor="middle" x="485.3679" y="-217.2" font-family="Times,serif" font-size="11.00" fill="#c0c0c0">Client</text>
</g>
<g id="clust5" class="cluster">
<title>cluster_\InvisibleCollector\Shlink\Client\Models</title>
<path fill="none" stroke="#c0c0c0" d="M429.3679,-40C429.3679,-40 541.3679,-40 541.3679,-40 547.3679,-40 553.3679,-46 553.3679,-52 553.3679,-52 553.3679,-190 553.3679,-190 553.3679,-196 547.3679,-202 541.3679,-202 541.3679,-202 429.3679,-202 429.3679,-202 423.3679,-202 417.3679,-196 417.3679,-190 417.3679,-190 417.3679,-52 417.3679,-52 417.3679,-46 423.3679,-40 429.3679,-40"/>
<text text-anchor="middle" x="485.3679" y="-189.2" font-family="Times,serif" font-size="11.00" fill="#c0c0c0">Models</text>
</g>
<g id="clust6" class="cluster">
<title>cluster_\InvisibleCollector\Shlink\Client\Models\Requests</title>
<path fill="none" stroke="#c0c0c0" d="M437.3679,-48C437.3679,-48 533.3679,-48 533.3679,-48 539.3679,-48 545.3679,-54 545.3679,-60 545.3679,-60 545.3679,-162 545.3679,-162 545.3679,-168 539.3679,-174 533.3679,-174 533.3679,-174 437.3679,-174 437.3679,-174 431.3679,-174 425.3679,-168 425.3679,-162 425.3679,-162 425.3679,-60 425.3679,-60 425.3679,-54 431.3679,-48 437.3679,-48"/>
<text text-anchor="middle" x="485.3679" y="-161.2" font-family="Times,serif" font-size="11.00" fill="#c0c0c0">Requests</text>
</g>
<!-- \\InvisibleCollector\\Shlink\\Client\\Models\\Requests\\VisitsOptions -->
<g id="node1" class="node">
<title>\\InvisibleCollector\\Shlink\\Client\\Models\\Requests\\VisitsOptions</title>
<polygon fill="none" stroke="#000000" points="537.3679,-146 433.3679,-146 433.3679,-110 537.3679,-110 537.3679,-146"/>
<text text-anchor="middle" x="485.3679" y="-125.2" font-family="Courier,monospace" font-size="11.00" fill="#000000">VisitsOptions</text>
</g>
<!-- \\InvisibleCollector\\Shlink\\Client\\Models\\Model -->
<g id="node3" class="node">
<title>\\InvisibleCollector\\Shlink\\Client\\Models\\Model</title>
<ellipse fill="none" stroke="#000000" cx="180.684" cy="-101" rx="180.8681" ry="18"/>
<text text-anchor="middle" x="180.684" y="-97.3" font-family="Times,serif" font-size="14.00" fill="#c0c0c0">\InvisibleCollector\Shlink\Client\Models\Model</text>
</g>
<!-- \\InvisibleCollector\\Shlink\\Client\\Models\\Requests\\VisitsOptions&#45;&gt;\\InvisibleCollector\\Shlink\\Client\\Models\\Model -->
<g id="edge1" class="edge">
<title>\\InvisibleCollector\\Shlink\\Client\\Models\\Requests\\VisitsOptions&#45;&gt;\\InvisibleCollector\\Shlink\\Client\\Models\\Model</title>
<path fill="none" stroke="#000000" d="M433.3371,-123.3892C403.537,-120.7484 364.5184,-117.2907 326.0896,-113.8853"/>
<polygon fill="none" stroke="#000000" points="326.0784,-110.3707 315.8085,-112.9743 325.4605,-117.3434 326.0784,-110.3707"/>
</g>
<!-- \\InvisibleCollector\\Shlink\\Client\\Models\\Requests\\ShortenUrl -->
<g id="node2" class="node">
<title>\\InvisibleCollector\\Shlink\\Client\\Models\\Requests\\ShortenUrl</title>
<polygon fill="none" stroke="#000000" points="527.3679,-92 443.3679,-92 443.3679,-56 527.3679,-56 527.3679,-92"/>
<text text-anchor="middle" x="485.3679" y="-71.2" font-family="Courier,monospace" font-size="11.00" fill="#000000">ShortenUrl</text>
</g>
<!-- \\InvisibleCollector\\Shlink\\Client\\Models\\Requests\\ShortenUrl&#45;&gt;\\InvisibleCollector\\Shlink\\Client\\Models\\Model -->
<g id="edge2" class="edge">
<title>\\InvisibleCollector\\Shlink\\Client\\Models\\Requests\\ShortenUrl&#45;&gt;\\InvisibleCollector\\Shlink\\Client\\Models\\Model</title>
<path fill="none" stroke="#000000" d="M443.3228,-77.7259C412.5784,-80.4503 368.9164,-84.3195 325.9995,-88.1227"/>
<polygon fill="none" stroke="#000000" points="325.6425,-84.6405 315.9905,-89.0096 326.2605,-91.6132 325.6425,-84.6405"/>
</g>
</g>
</svg>
